solid Visualization Toolkit generated SLA File
 facet normal 0.022344298795970101 0.83260014206533906 -0.55342364942609168
  outer loop
   vertex -0.14203920960426331 0.079302966594696045 -0.099758774042129517
   vertex -0.14267624914646149 0.079346656799316406 -0.099718764424324036
   vertex -0.14232803881168365 0.07956840842962265 -0.099371090531349182
  endloop
 endfacet
 facet normal 0.022529732839651869 0.83249375468447917 -0.55357615514896608
  outer loop
   vertex -0.14279443025588989 0.079732321202754974 -0.099143609404563904
   vertex -0.14326074719429016 0.079450979828834534 -0.099585682153701782
   vertex -0.14331468939781189 0.079736962914466858 -0.099157802760601044
  endloop
 endfacet
 facet normal 0.022435487567601782 0.83249004702532692 -0.55358555842920321
  outer loop
   vertex -0.14370483160018921 0.07951759546995163 -0.099503502249717712
   vertex -0.14331468939781189 0.079736962914466858 -0.099157802760601044
   vertex -0.14326074719429016 0.079450979828834534 -0.099585682153701782
  endloop
 endfacet
 facet normal 0.022506706268617237 0.83251432405739378 -0.5535461574360343
  outer loop
   vertex -0.14316448569297791 0.079189226031303406 -0.099975436925888062
   vertex -0.14372827112674713 0.079205527901649475 -0.09997384250164032
   vertex -0.14326074719429016 0.079450979828834534 -0.099585682153701782
  endloop
 endfacet
 facet normal 0.02245817164848684 0.83254260975734673 -0.55350558575739151
  outer loop
   vertex -0.14372827112674713 0.079205527901649475 -0.09997384250164032
   vertex -0.14370483160018921 0.07951759546995163 -0.099503502249717712
   vertex -0.14326074719429016 0.079450979828834534 -0.099585682153701782
  endloop
 endfacet
 facet normal 0.022541317670341003 0.83248782462754523 -0.55358460134344623
  outer loop
   vertex -0.14279443025588989 0.079732321202754974 -0.099143609404563904
   vertex -0.14267624914646149 0.079346656799316406 -0.099718764424324036
   vertex -0.14326074719429016 0.079450979828834534 -0.099585682153701782
  endloop
 endfacet
 facet normal 0.022386150497988887 0.83244432675575719 -0.55365630414367673
  outer loop
   vertex -0.14288593828678131 0.078986875712871552 -0.1002684161067009
   vertex -0.14347410202026367 0.078920334577560425 -0.10039224475622177
   vertex -0.14316448569297791 0.079189226031303406 -0.099975436925888062
  endloop
 endfacet
 facet normal 0.022557797459850395 0.83251916821023497 -0.55353679221556629
  outer loop
   vertex -0.14316448569297791 0.079189226031303406 -0.099975436925888062
   vertex -0.14326074719429016 0.079450979828834534 -0.099585682153701782
   vertex -0.14267624914646149 0.079346656799316406 -0.099718764424324036
  endloop
 endfacet
 facet normal 0.02250297150262057 0.83240173350203162 -0.55371560420161992
  outer loop
   vertex -0.14347410202026367 0.078920334577560425 -0.10039224475622177
   vertex -0.14372827112674713 0.079205527901649475 -0.09997384250164032
   vertex -0.14316448569297791 0.079189226031303406 -0.099975436925888062
  endloop
 endfacet
 facet normal 0.022560537127223182 0.83251665421946175 -0.55354046158502646
  outer loop
   vertex -0.14316448569297791 0.079189226031303406 -0.099975436925888062
   vertex -0.14267624914646149 0.079346656799316406 -0.099718764424324036
   vertex -0.14288593828678131 0.078986875712871552 -0.1002684161067009
  endloop
 endfacet
 facet normal 0.022333221285467303 0.83256109752473684 -0.553482832719697
  outer loop
   vertex -0.14288593828678131 0.078986875712871552 -0.1002684161067009
   vertex -0.14267624914646149 0.079346656799316406 -0.099718764424324036
   vertex -0.14241138100624084 0.079067036509513855 -0.10012868791818619
  endloop
 endfacet
 facet normal 0.022270089315775374 0.83271662523426759 -0.55325135804652126
  outer loop
   vertex -0.14301957190036774 0.078719019889831543 -0.10067695379257202
   vertex -0.14347410202026367 0.078920334577560425 -0.10039224475622177
   vertex -0.14288593828678131 0.078986875712871552 -0.1002684161067009
  endloop
 endfacet
 facet normal 0.02233813857947391 0.83256245998717926 -0.5534805848310318
  outer loop
   vertex -0.14203920960426331 0.079302966594696045 -0.099758774042129517
   vertex -0.14241138100624084 0.079067036509513855 -0.10012868791818619
   vertex -0.14267624914646149 0.079346656799316406 -0.099718764424324036
  endloop
 endfacet
 facet normal 0.022633688730969003 0.83262164874854361 -0.55337953175888843
  outer loop
   vertex -0.14202526211738586 0.078968264162540436 -0.10026150941848755
   vertex -0.1424533873796463 0.078727968037128448 -0.10064057260751724
   vertex -0.14241138100624084 0.079067036509513855 -0.10012868791818619
  endloop
 endfacet
 facet normal 0.02228465989360769 0.83264140274412923 -0.55336397458609021
  outer loop
   vertex -0.14288593828678131 0.078986875712871552 -0.1002684161067009
   vertex -0.14241138100624084 0.079067036509513855 -0.10012868791818619
   vertex -0.1424533873796463 0.078727968037128448 -0.10064057260751724
  endloop
 endfacet
 facet normal 0.022518247649373456 0.83247444630350487 -0.55360565818502461
  outer loop
   vertex -0.14202526211738586 0.078968264162540436 -0.10026150941848755
   vertex -0.14241138100624084 0.079067036509513855 -0.10012868791818619
   vertex -0.14203920960426331 0.079302966594696045 -0.099758774042129517
  endloop
 endfacet
 facet normal 0.022391653372980026 0.83269595139424402 -0.55327756722178689
  outer loop
   vertex -0.14288593828678131 0.078986875712871552 -0.1002684161067009
   vertex -0.1424533873796463 0.078727968037128448 -0.10064057260751724
   vertex -0.14301957190036774 0.078719019889831543 -0.10067695379257202
  endloop
 endfacet
 facet normal 0.022570595887212823 0.83249004277106131 -0.55358007269800868
  outer loop
   vertex -0.14232803881168365 0.07956840842962265 -0.099371090531349182
   vertex -0.14267624914646149 0.079346656799316406 -0.099718764424324036
   vertex -0.14279443025588989 0.079732321202754974 -0.099143609404563904
  endloop
 endfacet
endsolid
