solid Visualization Toolkit generated SLA File
 facet normal 0.40937053899127873 -0.24231153962518692 -0.87960268278948628
  outer loop
   vertex -0.10575700551271439 0.046203918755054474 -0.072106137871742249
   vertex -0.10565344989299774 0.045555833727121353 -0.07187940925359726
   vertex -0.10620732605457306 0.045818798243999481 -0.072209626436233521
  endloop
 endfacet
 facet normal 0.40903307256922383 -0.24178174716338949 -0.87990541098643038
  outer loop
   vertex -0.10624519735574722 0.045266315340995789 -0.072074934840202332
   vertex -0.10565344989299774 0.045555833727121353 -0.07187940925359726
   vertex -0.10581176728010178 0.045010320842266083 -0.071803107857704163
  endloop
 endfacet
 facet normal 0.40927909655913158 -0.2424943237867597 -0.87959486358831318
  outer loop
   vertex -0.10565344989299774 0.045555833727121353 -0.07187940925359726
   vertex -0.10624519735574722 0.045266315340995789 -0.072074934840202332
   vertex -0.10620732605457306 0.045818798243999481 -0.072209626436233521
  endloop
 endfacet
 facet normal 0.40824889780208268 -0.24214396020611234 -0.88016994948650984
  outer loop
   vertex -0.10509327799081802 0.045617744326591492 -0.071636617183685303
   vertex -0.10531570762395859 0.045129936188459396 -0.071605585515499115
   vertex -0.10565344989299774 0.045555833727121353 -0.07187940925359726
  endloop
 endfacet
 facet normal 0.40871403341594098 -0.24171254933522857 -0.88007265744524632
  outer loop
   vertex -0.10531570762395859 0.045129936188459396 -0.071605585515499115
   vertex -0.10581176728010178 0.045010320842266083 -0.071803107857704163
   vertex -0.10565344989299774 0.045555833727121353 -0.07187940925359726
  endloop
 endfacet
 facet normal 0.40852414379198604 -0.24256042927921184 -0.87992753229280718
  outer loop
   vertex -0.10527586936950684 0.046078134328126907 -0.071848087012767792
   vertex -0.10565344989299774 0.045555833727121353 -0.07187940925359726
   vertex -0.10575700551271439 0.046203918755054474 -0.072106137871742249
  endloop
 endfacet
 facet normal 0.40824739880286637 -0.24234917314653034 -0.88011416284814226
  outer loop
   vertex -0.10527586936950684 0.046078134328126907 -0.071848087012767792
   vertex -0.10509327799081802 0.045617744326591492 -0.071636617183685303
   vertex -0.10565344989299774 0.045555833727121353 -0.07187940925359726
  endloop
 endfacet
endsolid
