solid Visualization Toolkit generated SLA File
 facet normal -0.11697957376109473 0.90363006181691652 -0.4120297206554745
  outer loop
   vertex -0.12924891710281372 0.071016818284988403 -0.108231320977211
   vertex -0.12963792681694031 0.070956766605377197 -0.10825257748365402
   vertex -0.12948602437973022 0.071221634745597839 -0.10771481692790985
  endloop
 endfacet
 facet normal -0.1090658876694848 0.90316580869371643 -0.41520615861700855
  outer loop
   vertex -0.1287553608417511 0.071204036474227905 -0.10794750601053238
   vertex -0.12807731330394745 0.071332208812236786 -0.10784681141376495
   vertex -0.12825459241867065 0.071051649749279022 -0.10841052234172821
  endloop
 endfacet
 facet normal -0.10845091815125991 0.90603602113857795 -0.40906860885617108
  outer loop
   vertex -0.1287553608417511 0.071204036474227905 -0.10794750601053238
   vertex -0.12924891710281372 0.071016818284988403 -0.108231320977211
   vertex -0.12948602437973022 0.071221634745597839 -0.10771481692790985
  endloop
 endfacet
 facet normal -0.11382406208436036 0.89995973234966264 -0.4208521866876056
  outer loop
   vertex -0.12888860702514648 0.070944234728813171 -0.10848398506641388
   vertex -0.12939974665641785 0.070720285177230835 -0.10882464051246643
   vertex -0.12924891710281372 0.071016818284988403 -0.108231320977211
  endloop
 endfacet
 facet normal -0.10418193226980829 0.9017880901665134 -0.41943338615608705
  outer loop
   vertex -0.12825459241867065 0.071051649749279022 -0.10841052234172821
   vertex -0.12873284518718719 0.070788323879241943 -0.1088578850030899
   vertex -0.12888860702514648 0.070944234728813171 -0.10848398506641388
  endloop
 endfacet
 facet normal -0.11008532989636215 0.90358852520945221 -0.41401569686597189
  outer loop
   vertex -0.12902913987636566 0.07144908607006073 -0.10733988881111145
   vertex -0.1287553608417511 0.071204036474227905 -0.10794750601053238
   vertex -0.12948602437973022 0.071221634745597839 -0.10771481692790985
  endloop
 endfacet
 facet normal -0.10985507228190146 0.90365229573297179 -0.41393766621372841
  outer loop
   vertex -0.12902913987636566 0.07144908607006073 -0.10733988881111145
   vertex -0.12840317189693451 0.07151021808385849 -0.10737255960702896
   vertex -0.1287553608417511 0.071204036474227905 -0.10794750601053238
  endloop
 endfacet
 facet normal -0.11595860228560081 0.89994439810663951 -0.42030189491893599
  outer loop
   vertex -0.12939974665641785 0.070720285177230835 -0.10882464051246643
   vertex -0.12963792681694031 0.070956766605377197 -0.10825257748365402
   vertex -0.12924891710281372 0.071016818284988403 -0.108231320977211
  endloop
 endfacet
 facet normal -0.11281048561695126 0.89951265803244584 -0.42207910677297433
  outer loop
   vertex -0.12873284518718719 0.070788323879241943 -0.1088578850030899
   vertex -0.12939974665641785 0.070720285177230835 -0.10882464051246643
   vertex -0.12888860702514648 0.070944234728813171 -0.10848398506641388
  endloop
 endfacet
 facet normal -0.10928649287948645 0.90357941841202083 -0.4142471449464632
  outer loop
   vertex -0.1287553608417511 0.071204036474227905 -0.10794750601053238
   vertex -0.12840317189693451 0.07151021808385849 -0.10737255960702896
   vertex -0.12807731330394745 0.071332208812236786 -0.10784681141376495
  endloop
 endfacet
 facet normal -0.1055850380427122 0.90502190245859193 -0.4120523702295012
  outer loop
   vertex -0.12888860702514648 0.070944234728813171 -0.10848398506641388
   vertex -0.1287553608417511 0.071204036474227905 -0.10794750601053238
   vertex -0.12825459241867065 0.071051649749279022 -0.10841052234172821
  endloop
 endfacet
 facet normal -0.10647763434360111 0.90501889867574625 -0.4118292199739228
  outer loop
   vertex -0.12924891710281372 0.071016818284988403 -0.108231320977211
   vertex -0.1287553608417511 0.071204036474227905 -0.10794750601053238
   vertex -0.12888860702514648 0.070944234728813171 -0.10848398506641388
  endloop
 endfacet
endsolid
