solid Visualization Toolkit generated SLA File
 facet normal 0.33460611775130755 0.65633176778250246 -0.67621546607785721
  outer loop
   vertex -0.13508747518062592 0.078330300748348236 -0.10901515185832977
   vertex -0.1346011608839035 0.078325234353542328 -0.1087794303894043
   vertex -0.13463421165943146 0.077850133180618286 -0.10925691574811935
  endloop
 endfacet
 facet normal 0.33543526436716015 0.6562385392976231 -0.67589508280461363
  outer loop
   vertex -0.13463421165943146 0.077850133180618286 -0.10925691574811935
   vertex -0.13470079004764557 0.077349849045276642 -0.10977569222450256
   vertex -0.13514295220375061 0.077620536088943481 -0.10973231494426727
  endloop
 endfacet
 facet normal 0.33550260311749619 0.65594481292092977 -0.67614673385553692
  outer loop
   vertex -0.13463421165943146 0.077850133180618286 -0.10925691574811935
   vertex -0.1340220719575882 0.07764057070016861 -0.10915647447109222
   vertex -0.13420559465885162 0.077305085957050323 -0.10957299917936325
  endloop
 endfacet
 facet normal 0.33530926365777242 0.6561297862350709 -0.67606316370617514
  outer loop
   vertex -0.13463421165943146 0.077850133180618286 -0.10925691574811935
   vertex -0.1346011608839035 0.078325234353542328 -0.1087794303894043
   vertex -0.13412781059741974 0.078044787049293518 -0.10881683975458145
  endloop
 endfacet
 facet normal 0.33592633048515946 0.65607993992363045 -0.67580515898932059
  outer loop
   vertex -0.13420559465885162 0.077305085957050323 -0.10957299917936325
   vertex -0.13470079004764557 0.077349849045276642 -0.10977569222450256
   vertex -0.13463421165943146 0.077850133180618286 -0.10925691574811935
  endloop
 endfacet
 facet normal 0.33484704162970214 0.65687186205434223 -0.67557147331211209
  outer loop
   vertex -0.13526365160942078 0.078019574284553528 -0.10940414667129517
   vertex -0.13463421165943146 0.077850133180618286 -0.10925691574811935
   vertex -0.13514295220375061 0.077620536088943481 -0.10973231494426727
  endloop
 endfacet
 facet normal 0.33549688566074004 0.65591105820988771 -0.67618231523009353
  outer loop
   vertex -0.1340220719575882 0.07764057070016861 -0.10915647447109222
   vertex -0.13463421165943146 0.077850133180618286 -0.10925691574811935
   vertex -0.13412781059741974 0.078044787049293518 -0.10881683975458145
  endloop
 endfacet
 facet normal 0.33483069362074835 0.65643655875467355 -0.67600255246542573
  outer loop
   vertex -0.13508747518062592 0.078330300748348236 -0.10901515185832977
   vertex -0.13463421165943146 0.077850133180618286 -0.10925691574811935
   vertex -0.13526365160942078 0.078019574284553528 -0.10940414667129517
  endloop
 endfacet
endsolid
