solid Visualization Toolkit generated SLA File
 facet normal -0.18460450386379471 -0.96539815499678172 -0.18419440676093349
  outer loop
   vertex -0.12057113647460938 0.12273237109184265 -0.13098922371864319
   vertex -0.12022137641906738 0.12275564670562744 -0.13146175444126129
   vertex -0.12008009850978851 0.12263297289609909 -0.13096038997173309
  endloop
 endfacet
 facet normal -0.18398589077141811 -0.96563218325338296 -0.18358561670880569
  outer loop
   vertex -0.12062132358551025 0.12257513403892517 -0.13011229038238525
   vertex -0.12085453420877457 0.12269335985183716 -0.1305004209280014
   vertex -0.12023811042308807 0.12257426977157593 -0.13049179315567017
  endloop
 endfacet
 facet normal -0.18397873479947424 -0.96560573627563517 -0.18373183505634891
  outer loop
   vertex -0.12023811042308807 0.12257426977157593 -0.13049179315567017
   vertex -0.12085453420877457 0.12269335985183716 -0.1305004209280014
   vertex -0.12057113647460938 0.12273237109184265 -0.13098922371864319
  endloop
 endfacet
 facet normal -0.18391681628763684 -0.96563716185105841 -0.18362863703369436
  outer loop
   vertex -0.12085453420877457 0.12269335985183716 -0.1305004209280014
   vertex -0.12062132358551025 0.12257513403892517 -0.13011229038238525
   vertex -0.12118755280971527 0.12265899777412415 -0.12998618185520172
  endloop
 endfacet
 facet normal -0.18365751656943083 -0.96571460031440959 -0.18348086370826103
  outer loop
   vertex -0.12118755280971527 0.12265899777412415 -0.12998618185520172
   vertex -0.12172814458608627 0.12279897928237915 -0.13018183410167694
   vertex -0.12129389494657516 0.12277062237262726 -0.1304672509431839
  endloop
 endfacet
 facet normal -0.18469390799784469 -0.96556278403046703 -0.18323938016653957
  outer loop
   vertex -0.12008009850978851 0.12263297289609909 -0.13096038997173309
   vertex -0.12023811042308807 0.12257426977157593 -0.13049179315567017
   vertex -0.12057113647460938 0.12273237109184265 -0.13098922371864319
  endloop
 endfacet
 facet normal -0.18367430096420315 -0.96571221808698171 -0.18347660069565558
  outer loop
   vertex -0.12129389494657516 0.12277062237262726 -0.1304672509431839
   vertex -0.12085453420877457 0.12269335985183716 -0.1305004209280014
   vertex -0.12118755280971527 0.12265899777412415 -0.12998618185520172
  endloop
 endfacet
 facet normal -0.18367380843136341 -0.96571460947246401 -0.18346450650674931
  outer loop
   vertex -0.12114235758781433 0.12283112108707428 -0.13093741238117218
   vertex -0.12085453420877457 0.12269335985183716 -0.1305004209280014
   vertex -0.12129389494657516 0.12277062237262726 -0.1304672509431839
  endloop
 endfacet
 facet normal -0.18341700951184114 -0.96578807586119819 -0.18333464796938373
  outer loop
   vertex -0.12022137641906738 0.12275564670562744 -0.13146175444126129
   vertex -0.12057113647460938 0.12273237109184265 -0.13098922371864319
   vertex -0.12085418403148651 0.12287768721580505 -0.13147155940532684
  endloop
 endfacet
 facet normal -0.18359460792989557 -0.9657194670692858 -0.18351820308209948
  outer loop
   vertex -0.12057113647460938 0.12273237109184265 -0.13098922371864319
   vertex -0.12085453420877457 0.12269335985183716 -0.1305004209280014
   vertex -0.12114235758781433 0.12283112108707428 -0.13093741238117218
  endloop
 endfacet
 facet normal -0.18428360664522073 -0.9655729384021281 -0.18359861913235995
  outer loop
   vertex -0.12085418403148651 0.12287768721580505 -0.13147155940532684
   vertex -0.12114235758781433 0.12283112108707428 -0.13093741238117218
   vertex -0.12151236832141876 0.12298807501792908 -0.13139146566390991
  endloop
 endfacet
 facet normal -0.18361461123211989 -0.96573555458452287 -0.18341350319265376
  outer loop
   vertex -0.12129389494657516 0.12277062237262726 -0.1304672509431839
   vertex -0.12172814458608627 0.12279897928237915 -0.13018183410167694
   vertex -0.12170197069644928 0.12291435897350311 -0.13081555068492889
  endloop
 endfacet
 facet normal -0.1838694991402674 -0.96555557191635522 -0.18410443999857071
  outer loop
   vertex -0.12057618796825409 0.12290067225694656 -0.13186974823474884
   vertex -0.12085418403148651 0.12287768721580505 -0.13147155940532684
   vertex -0.12106955051422119 0.12302779406309128 -0.13204371929168701
  endloop
 endfacet
 facet normal -0.18431197416648007 -0.96550545627901851 -0.18392474024529407
  outer loop
   vertex -0.12151236832141876 0.12298807501792908 -0.13139146566390991
   vertex -0.12106955051422119 0.12302779406309128 -0.13204371929168701
   vertex -0.12085418403148651 0.12287768721580505 -0.13147155940532684
  endloop
 endfacet
 facet normal -0.18359130520080064 -0.96573485403261738 -0.18344051995474039
  outer loop
   vertex -0.12114235758781433 0.12283112108707428 -0.13093741238117218
   vertex -0.12129389494657516 0.12277062237262726 -0.1304672509431839
   vertex -0.12170197069644928 0.12291435897350311 -0.13081555068492889
  endloop
 endfacet
 facet normal -0.18400428070639932 -0.96560278322384974 -0.18372177255860458
  outer loop
   vertex -0.12151236832141876 0.12298807501792908 -0.13139146566390991
   vertex -0.12155916541814804 0.1231086254119873 -0.13197818398475647
   vertex -0.12106955051422119 0.12302779406309128 -0.13204371929168701
  endloop
 endfacet
 facet normal -0.18322380661835613 -0.96573419929614646 -0.18381102523545684
  outer loop
   vertex -0.12151236832141876 0.12298807501792908 -0.13139146566390991
   vertex -0.1219838485121727 0.12312352657318115 -0.13163314759731293
   vertex -0.12155916541814804 0.1231086254119873 -0.13197818398475647
  endloop
 endfacet
 facet normal -0.18392282976586943 -0.96567652564748974 -0.18341548599915969
  outer loop
   vertex -0.12172814458608627 0.12279897928237915 -0.13018183410167694
   vertex -0.12207858264446259 0.1229461282491684 -0.13060516119003296
   vertex -0.12170197069644928 0.12291435897350311 -0.13081555068492889
  endloop
 endfacet
 facet normal -0.18468808336699227 -0.9653494462407235 -0.18436582792088979
  outer loop
   vertex -0.12151236832141876 0.12298807501792908 -0.13139146566390991
   vertex -0.12170197069644928 0.12291435897350311 -0.13081555068492889
   vertex -0.1221613734960556 0.12306153029203415 -0.13112594187259674
  endloop
 endfacet
 facet normal -0.18395887975338376 -0.96585367587851123 -0.18244398414814278
  outer loop
   vertex -0.1219838485121727 0.12312352657318115 -0.13163314759731293
   vertex -0.12151236832141876 0.12298807501792908 -0.13139146566390991
   vertex -0.1221613734960556 0.12306153029203415 -0.13112594187259674
  endloop
 endfacet
 facet normal -0.18357879901487581 -0.96577604211190859 -0.18323608005770231
  outer loop
   vertex -0.12057113647460938 0.12273237109184265 -0.13098922371864319
   vertex -0.12114235758781433 0.12283112108707428 -0.13093741238117218
   vertex -0.12085418403148651 0.12287768721580505 -0.13147155940532684
  endloop
 endfacet
 facet normal -0.18339452444357296 -0.96570739463681277 -0.18378159959009732
  outer loop
   vertex -0.12057618796825409 0.12290067225694656 -0.13186974823474884
   vertex -0.12022137641906738 0.12275564670562744 -0.13146175444126129
   vertex -0.12085418403148651 0.12287768721580505 -0.13147155940532684
  endloop
 endfacet
 facet normal -0.18370806472169435 -0.96559205719973118 -0.1840742405362599
  outer loop
   vertex -0.12114235758781433 0.12283112108707428 -0.13093741238117218
   vertex -0.12170197069644928 0.12291435897350311 -0.13081555068492889
   vertex -0.12151236832141876 0.12298807501792908 -0.13139146566390991
  endloop
 endfacet
 facet normal -0.18454235405632063 -0.96533720779211063 -0.18457571566022155
  outer loop
   vertex -0.12170197069644928 0.12291435897350311 -0.13081555068492889
   vertex -0.12207858264446259 0.1229461282491684 -0.13060516119003296
   vertex -0.1221613734960556 0.12306153029203415 -0.13112594187259674
  endloop
 endfacet
endsolid
