solid Visualization Toolkit generated SLA File
 facet normal -0.3959200337665682 -0.17177913127074593 -0.90207497300509731
  outer loop
   vertex -0.14539405703544617 0.092467322945594788 -0.076293632388114929
   vertex -0.14554679393768311 0.091871768236160278 -0.076113186776638031
   vertex -0.14598903059959412 0.09222719818353653 -0.075986772775650024
  endloop
 endfacet
 facet normal -0.39192721621573412 -0.17247910745082251 -0.90368358106272617
  outer loop
   vertex -0.14474079012870789 0.09241088479757309 -0.076566182076931
   vertex -0.1450154036283493 0.09197099506855011 -0.076363123953342438
   vertex -0.14539405703544617 0.092467322945594788 -0.076293632388114929
  endloop
 endfacet
 facet normal -0.3926339708456365 -0.16987490984649592 -0.90387005700080181
  outer loop
   vertex -0.14539405703544617 0.092467322945594788 -0.076293632388114929
   vertex -0.14548903703689575 0.093097791075706482 -0.076370865106582642
   vertex -0.14493231475353241 0.092947795987129211 -0.076584510505199432
  endloop
 endfacet
 facet normal -0.39520772411295574 -0.17351794656455741 -0.90205453106864741
  outer loop
   vertex -0.14591799676418304 0.092768564820289612 -0.07612203061580658
   vertex -0.14539405703544617 0.092467322945594788 -0.076293632388114929
   vertex -0.14598903059959412 0.09222719818353653 -0.075986772775650024
  endloop
 endfacet
 facet normal -0.39255946492971716 -0.17301421185538399 -0.90330678564381128
  outer loop
   vertex -0.1450154036283493 0.09197099506855011 -0.076363123953342438
   vertex -0.14554679393768311 0.091871768236160278 -0.076113186776638031
   vertex -0.14539405703544617 0.092467322945594788 -0.076293632388114929
  endloop
 endfacet
 facet normal -0.39191614832817179 -0.17066341643506541 -0.90403303643745336
  outer loop
   vertex -0.14474079012870789 0.09241088479757309 -0.076566182076931
   vertex -0.14539405703544617 0.092467322945594788 -0.076293632388114929
   vertex -0.14493231475353241 0.092947795987129211 -0.076584510505199432
  endloop
 endfacet
 facet normal -0.3936158328437066 -0.1699683486591759 -0.90342533537023861
  outer loop
   vertex -0.14548903703689575 0.093097791075706482 -0.076370865106582642
   vertex -0.14539405703544617 0.092467322945594788 -0.076293632388114929
   vertex -0.14591799676418304 0.092768564820289612 -0.07612203061580658
  endloop
 endfacet
endsolid
