solid Visualization Toolkit generated SLA File
 facet normal -0.60074123694849058 -0.7956744880057377 0.07753757390068948
  outer loop
   vertex -0.08111870288848877 0.053381353616714478 -0.10029647499322891
   vertex -0.081664100289344788 0.053817111998796463 -0.10005041211843491
   vertex -0.081593260169029236 0.053718283772468567 -0.10051571577787399
  endloop
 endfacet
 facet normal -0.60054422352413095 -0.79581731625593921 0.077597904217790767
  outer loop
   vertex -0.082067392766475677 0.054081123322248459 -0.10046395659446716
   vertex -0.081593260169029236 0.053718283772468567 -0.10051571577787399
   vertex -0.081664100289344788 0.053817111998796463 -0.10005041211843491
  endloop
 endfacet
 facet normal -0.60074693311835126 -0.79567186938647672 0.077520310989602714
  outer loop
   vertex -0.081664100289344788 0.053817111998796463 -0.10005041211843491
   vertex -0.08111870288848877 0.053381353616714478 -0.10029647499322891
   vertex -0.081274427473545074 0.053573235869407654 -0.099533781409263611
  endloop
 endfacet
 facet normal -0.60056976677767149 -0.7957989609932139 0.077588458643890301
  outer loop
   vertex -0.081274427473545074 0.053573235869407654 -0.099533781409263611
   vertex -0.08111870288848877 0.053381353616714478 -0.10029647499322891
   vertex -0.080837637186050415 0.05321810394525528 -0.099795296788215637
  endloop
 endfacet
 facet normal -0.60060183352814356 -0.79578219781480164 0.077512135847723859
  outer loop
   vertex -0.0808754563331604 0.05330367386341095 -0.099209830164909363
   vertex -0.081274427473545074 0.053573235869407654 -0.099533781409263611
   vertex -0.080837637186050415 0.05321810394525528 -0.099795296788215637
  endloop
 endfacet
 facet normal -0.60061302635419311 -0.79577317822071036 0.077518006928498209
  outer loop
   vertex -0.081230044364929199 0.053613815456628799 -0.098773322999477386
   vertex -0.081649713218212128 0.053902160376310349 -0.099064886569976807
   vertex -0.081274427473545074 0.053573235869407654 -0.099533781409263611
  endloop
 endfacet
 facet normal -0.60064045653775811 -0.79574600792017636 0.077584359565674901
  outer loop
   vertex -0.081230044364929199 0.053613815456628799 -0.098773322999477386
   vertex -0.081692293286323547 0.053986191749572754 -0.09853266179561615
   vertex -0.081649713218212128 0.053902160376310349 -0.099064886569976807
  endloop
 endfacet
 facet normal -0.60087265100918119 -0.7955626580194004 0.077666688060615843
  outer loop
   vertex -0.081274427473545074 0.053573235869407654 -0.099533781409263611
   vertex -0.081830538809299469 0.053998004645109177 -0.099485136568546295
   vertex -0.081664100289344788 0.053817111998796463 -0.10005041211843491
  endloop
 endfacet
 facet normal -0.60045640987386706 -0.79585572416318306 0.077883028690992548
  outer loop
   vertex -0.082078061997890472 0.054139323532581329 -0.099949389696121216
   vertex -0.081664100289344788 0.053817111998796463 -0.10005041211843491
   vertex -0.081830538809299469 0.053998004645109177 -0.099485136568546295
  endloop
 endfacet
 facet normal -0.60092816061962684 -0.79557336831453795 0.077125620924388391
  outer loop
   vertex -0.081830538809299469 0.053998004645109177 -0.099485136568546295
   vertex -0.081274427473545074 0.053573235869407654 -0.099533781409263611
   vertex -0.081649713218212128 0.053902160376310349 -0.099064886569976807
  endloop
 endfacet
 facet normal -0.60060466041114136 -0.79577950704612799 0.077517856380572611
  outer loop
   vertex -0.0808754563331604 0.05330367386341095 -0.099209830164909363
   vertex -0.081230044364929199 0.053613815456628799 -0.098773322999477386
   vertex -0.081274427473545074 0.053573235869407654 -0.099533781409263611
  endloop
 endfacet
 facet normal -0.60060126906676692 -0.79578916194660687 0.077444982559919356
  outer loop
   vertex -0.081692293286323547 0.053986191749572754 -0.09853266179561615
   vertex -0.082199767231941223 0.054370727390050888 -0.098516911268234253
   vertex -0.082065470516681671 0.054225105792284012 -0.098971754312515259
  endloop
 endfacet
 facet normal -0.60069755907318989 -0.7957039950287742 0.077573157849605931
  outer loop
   vertex -0.081692293286323547 0.053986191749572754 -0.09853266179561615
   vertex -0.082065470516681671 0.054225105792284012 -0.098971754312515259
   vertex -0.081649713218212128 0.053902160376310349 -0.099064886569976807
  endloop
 endfacet
 facet normal -0.6007972650047676 -0.79568003534632548 0.077044972023235125
  outer loop
   vertex -0.081830538809299469 0.053998004645109177 -0.099485136568546295
   vertex -0.081649713218212128 0.053902160376310349 -0.099064886569976807
   vertex -0.082065470516681671 0.054225105792284012 -0.098971754312515259
  endloop
 endfacet
 facet normal -0.60036310899937717 -0.79597571111955345 0.077374444491208894
  outer loop
   vertex -0.082307785749435425 0.054358448833227158 -0.099480181932449341
   vertex -0.081830538809299469 0.053998004645109177 -0.099485136568546295
   vertex -0.082065470516681671 0.054225105792284012 -0.098971754312515259
  endloop
 endfacet
 facet normal -0.60034075861557701 -0.79595185915705935 0.077792104029227163
  outer loop
   vertex -0.081830538809299469 0.053998004645109177 -0.099485136568546295
   vertex -0.082307785749435425 0.054358448833227158 -0.099480181932449341
   vertex -0.082078061997890472 0.054139323532581329 -0.099949389696121216
  endloop
 endfacet
 facet normal -0.60057556257855582 -0.79580725997879698 0.077458366872086168
  outer loop
   vertex -0.082199767231941223 0.054370727390050888 -0.098516911268234253
   vertex -0.08265744149684906 0.054681222885847092 -0.098875470459461212
   vertex -0.082065470516681671 0.054225105792284012 -0.098971754312515259
  endloop
 endfacet
 facet normal -0.60056696993320469 -0.79580817746294341 0.077515542366402665
  outer loop
   vertex -0.082065470516681671 0.054225105792284012 -0.098971754312515259
   vertex -0.08265744149684906 0.054681222885847092 -0.098875470459461212
   vertex -0.082307785749435425 0.054358448833227158 -0.099480181932449341
  endloop
 endfacet
 facet normal -0.60052113394092277 -0.79583823670873832 0.077562031192037931
  outer loop
   vertex -0.082078061997890472 0.054139323532581329 -0.099949389696121216
   vertex -0.082067392766475677 0.054081123322248459 -0.10046395659446716
   vertex -0.081664100289344788 0.053817111998796463 -0.10005041211843491
  endloop
 endfacet
 facet normal -0.60066723332428329 -0.79573117202296884 0.077529198896308077
  outer loop
   vertex -0.082078061997890472 0.054139323532581329 -0.099949389696121216
   vertex -0.082307785749435425 0.054358448833227158 -0.099480181932449341
   vertex -0.082484245300292969 0.054428897798061371 -0.10012426227331161
  endloop
 endfacet
 facet normal -0.60060495953329396 -0.79578036238823213 0.077506757261959394
  outer loop
   vertex -0.082732081413269043 0.054671116173267365 -0.099557846784591675
   vertex -0.082484245300292969 0.054428897798061371 -0.10012426227331161
   vertex -0.082307785749435425 0.054358448833227158 -0.099480181932449341
  endloop
 endfacet
 facet normal -0.60060317338513558 -0.79578414277670917 0.077481779954020696
  outer loop
   vertex -0.082307785749435425 0.054358448833227158 -0.099480181932449341
   vertex -0.08265744149684906 0.054681222885847092 -0.098875470459461212
   vertex -0.082732081413269043 0.054671116173267365 -0.099557846784591675
  endloop
 endfacet
 facet normal -0.60067124253206627 -0.79572648131174761 0.077546278661253285
  outer loop
   vertex -0.082484245300292969 0.054428897798061371 -0.10012426227331161
   vertex -0.082067392766475677 0.054081123322248459 -0.10046395659446716
   vertex -0.082078061997890472 0.054139323532581329 -0.099949389696121216
  endloop
 endfacet
endsolid
