solid Visualization Toolkit generated SLA File
 facet normal -0.64775561023528383 0.61247418964289269 -0.45308722827949721
  outer loop
   vertex -0.06448616087436676 0.12903089821338654 -0.055229276418685913
   vertex -0.065051853656768799 0.12867209315299988 -0.054905559867620468
   vertex -0.064769923686981201 0.1291087418794632 -0.054718367755413055
  endloop
 endfacet
 facet normal -0.64793535620996001 0.61243164285177787 -0.45288768696769044
  outer loop
   vertex -0.06551717221736908 0.1283794492483139 -0.054635576903820038
   vertex -0.065051853656768799 0.12867209315299988 -0.054905559867620468
   vertex -0.065437875688076019 0.12808874249458313 -0.055142141878604889
  endloop
 endfacet
 facet normal -0.6478701472589482 0.6124282061407228 -0.45298561192815495
  outer loop
   vertex -0.064952641725540161 0.12839175760746002 -0.055426463484764099
   vertex -0.065437875688076019 0.12808874249458313 -0.055142141878604889
   vertex -0.065051853656768799 0.12867209315299988 -0.054905559867620468
  endloop
 endfacet
 facet normal -0.64767508209247171 0.61276404797459549 -0.45281034611225196
  outer loop
   vertex -0.06526908278465271 0.12785550951957703 -0.055699195712804794
   vertex -0.065701745450496674 0.12766142189502716 -0.055342987179756165
   vertex -0.065437875688076019 0.12808874249458313 -0.055142141878604889
  endloop
 endfacet
 facet normal -0.64786532238936534 0.61247645488402924 -0.45292727480028788
  outer loop
   vertex -0.064769923686981201 0.1291087418794632 -0.054718367755413055
   vertex -0.065051853656768799 0.12867209315299988 -0.054905559867620468
   vertex -0.065188102424144745 0.12892420589923859 -0.054369747638702393
  endloop
 endfacet
 facet normal -0.64793719524878313 0.61241002167860936 -0.4529142925110064
  outer loop
   vertex -0.06551717221736908 0.1283794492483139 -0.054635576903820038
   vertex -0.065188102424144745 0.12892420589923859 -0.054369747638702393
   vertex -0.065051853656768799 0.12867209315299988 -0.054905559867620468
  endloop
 endfacet
 facet normal -0.64785559655649827 0.61258742399592458 -0.4527910930798672
  outer loop
   vertex -0.064952641725540161 0.12839175760746002 -0.055426463484764099
   vertex -0.06526908278465271 0.12785550951957703 -0.055699195712804794
   vertex -0.065437875688076019 0.12808874249458313 -0.055142141878604889
  endloop
 endfacet
 facet normal -0.64786324298533959 0.61275771500660103 -0.4525496669851915
  outer loop
   vertex -0.065984606742858887 0.1277635246515274 -0.054799798876047134
   vertex -0.065437875688076019 0.12808874249458313 -0.055142141878604889
   vertex -0.065701745450496674 0.12766142189502716 -0.055342987179756165
  endloop
 endfacet
 facet normal -0.64835547425960371 0.6123861642775813 -0.45234761500310311
  outer loop
   vertex -0.06551717221736908 0.1283794492483139 -0.054635576903820038
   vertex -0.065628252923488617 0.12858447432518005 -0.054198801517486572
   vertex -0.065188102424144745 0.12892420589923859 -0.054369747638702393
  endloop
 endfacet
 facet normal -0.64806666292054516 0.61257017917954493 -0.45251229374567131
  outer loop
   vertex -0.064952641725540161 0.12839175760746002 -0.055426463484764099
   vertex -0.064863324165344238 0.12822574377059937 -0.055779114365577698
   vertex -0.06526908278465271 0.12785550951957703 -0.055699195712804794
  endloop
 endfacet
 facet normal -0.64775132654371115 0.6125300722737741 -0.45301780265365671
  outer loop
   vertex -0.065051853656768799 0.12867209315299988 -0.054905559867620468
   vertex -0.06448616087436676 0.12903089821338654 -0.055229276418685913
   vertex -0.064952641725540161 0.12839175760746002 -0.055426463484764099
  endloop
 endfacet
 facet normal -0.64810281773398237 0.61261996072577796 -0.45239310490503559
  outer loop
   vertex -0.065969109535217285 0.12811942398548126 -0.054340247064828873
   vertex -0.065628252923488617 0.12858447432518005 -0.054198801517486572
   vertex -0.06551717221736908 0.1283794492483139 -0.054635576903820038
  endloop
 endfacet
 facet normal -0.64839885879864789 0.61266159609416737 -0.45191225761198189
  outer loop
   vertex -0.06448616087436676 0.12903089821338654 -0.055229276418685913
   vertex -0.064574740827083588 0.12864890694618225 -0.055620051920413971
   vertex -0.064952641725540161 0.12839175760746002 -0.055426463484764099
  endloop
 endfacet
 facet normal -0.6484019552017356 0.61226031086524646 -0.45245134128407477
  outer loop
   vertex -0.064952641725540161 0.12839175760746002 -0.055426463484764099
   vertex -0.064574740827083588 0.12864890694618225 -0.055620051920413971
   vertex -0.064863324165344238 0.12822574377059937 -0.055779114365577698
  endloop
 endfacet
 facet normal -0.6479031221025493 0.61245820365831449 -0.45289788378993306
  outer loop
   vertex -0.06551717221736908 0.1283794492483139 -0.054635576903820038
   vertex -0.065437875688076019 0.12808874249458313 -0.055142141878604889
   vertex -0.065984606742858887 0.1277635246515274 -0.054799798876047134
  endloop
 endfacet
 facet normal -0.64811909764996833 0.61251808202659386 -0.45250771756054475
  outer loop
   vertex -0.06551717221736908 0.1283794492483139 -0.054635576903820038
   vertex -0.065984606742858887 0.1277635246515274 -0.054799798876047134
   vertex -0.065969109535217285 0.12811942398548126 -0.054340247064828873
  endloop
 endfacet
endsolid
