solid Visualization Toolkit generated SLA File
 facet normal -0.6731266603122058 0.32668179594374047 -0.66346025003455067
  outer loop
   vertex -0.076509818434715271 0.13196906447410583 -0.10643382370471954
   vertex -0.076097138226032257 0.13236856460571289 -0.10665580630302429
   vertex -0.076163195073604584 0.13173031806945801 -0.10690305382013321
  endloop
 endfacet
 facet normal -0.67005824516498103 0.33182781879999063 -0.66401223389096287
  outer loop
   vertex -0.075825050473213196 0.13285554945468903 -0.10668353736400604
   vertex -0.076177947223186493 0.13289082050323486 -0.10630980134010315
   vertex -0.075800657272338867 0.1333325058221817 -0.10646980255842209
  endloop
 endfacet
 facet normal -0.66960628348684048 0.33163067636204041 -0.66456641474768852
  outer loop
   vertex -0.076608315110206604 0.13295954465866089 -0.10584187507629395
   vertex -0.07613787055015564 0.13345390558242798 -0.10606919229030609
   vertex -0.076177947223186493 0.13289082050323486 -0.10630980134010315
  endloop
 endfacet
 facet normal -0.66925273828130605 0.33209144052022771 -0.66469244574929076
  outer loop
   vertex -0.075474262237548828 0.13310788571834564 -0.10691066086292267
   vertex -0.075825050473213196 0.13285554945468903 -0.10668353736400604
   vertex -0.075800657272338867 0.1333325058221817 -0.10646980255842209
  endloop
 endfacet
 facet normal -0.66973739735669535 0.33125158399383425 -0.66462335701016084
  outer loop
   vertex -0.075800657272338867 0.1333325058221817 -0.10646980255842209
   vertex -0.075503021478652954 0.133615642786026 -0.10662861168384552
   vertex -0.075474262237548828 0.13310788571834564 -0.10691066086292267
  endloop
 endfacet
 facet normal -0.66906381628947798 0.3313042922450205 -0.66527518792766194
  outer loop
   vertex -0.07554008811712265 0.13259230554103851 -0.10710121691226959
   vertex -0.075825050473213196 0.13285554945468903 -0.10668353736400604
   vertex -0.075474262237548828 0.13310788571834564 -0.10691066086292267
  endloop
 endfacet
 facet normal -0.67005821464699922 0.33027970249353117 -0.66478365436046982
  outer loop
   vertex -0.076177947223186493 0.13289082050323486 -0.10630980134010315
   vertex -0.076613947749137878 0.13244597613811493 -0.10609135031700134
   vertex -0.076608315110206604 0.13295954465866089 -0.10584187507629395
  endloop
 endfacet
 facet normal -0.66987280197402976 0.33155169643300175 -0.66433718981241829
  outer loop
   vertex -0.076177947223186493 0.13289082050323486 -0.10630980134010315
   vertex -0.07613787055015564 0.13345390558242798 -0.10606919229030609
   vertex -0.075800657272338867 0.1333325058221817 -0.10646980255842209
  endloop
 endfacet
 facet normal -0.67019544804356745 0.33080688573383327 -0.66438307155794118
  outer loop
   vertex -0.075800657272338867 0.1333325058221817 -0.10646980255842209
   vertex -0.07613787055015564 0.13345390558242798 -0.10606919229030609
   vertex -0.075725793838500977 0.13395845890045166 -0.10623364895582199
  endloop
 endfacet
 facet normal -0.66959760933122958 0.33093807311271983 -0.66492032104782461
  outer loop
   vertex -0.075503021478652954 0.133615642786026 -0.10662861168384552
   vertex -0.075800657272338867 0.1333325058221817 -0.10646980255842209
   vertex -0.075725793838500977 0.13395845890045166 -0.10623364895582199
  endloop
 endfacet
 facet normal -0.67016038031306102 0.33075893482998958 -0.66444231629900274
  outer loop
   vertex -0.07613787055015564 0.13345390558242798 -0.10606919229030609
   vertex -0.076104074716567993 0.13390745222568512 -0.10587750375270844
   vertex -0.075725793838500977 0.13395845890045166 -0.10623364895582199
  endloop
 endfacet
 facet normal -0.66682082112881347 0.33464895686245927 -0.66585288779126184
  outer loop
   vertex -0.075825050473213196 0.13285554945468903 -0.10668353736400604
   vertex -0.07554008811712265 0.13259230554103851 -0.10710121691226959
   vertex -0.076097138226032257 0.13236856460571289 -0.10665580630302429
  endloop
 endfacet
 facet normal -0.66681915752908194 0.33250800397140207 -0.66692626162654545
  outer loop
   vertex -0.076097138226032257 0.13236856460571289 -0.10665580630302429
   vertex -0.07554008811712265 0.13259230554103851 -0.10710121691226959
   vertex -0.075746797025203705 0.13206969201564789 -0.10715509951114655
  endloop
 endfacet
 facet normal -0.6698176389718985 0.33201894619201228 -0.66415943107935826
  outer loop
   vertex -0.076454244554042816 0.13351556658744812 -0.10571929812431335
   vertex -0.07613787055015564 0.13345390558242798 -0.10606919229030609
   vertex -0.076608315110206604 0.13295954465866089 -0.10584187507629395
  endloop
 endfacet
 facet normal -0.67027396404554118 0.33072591872203533 -0.66434417270579149
  outer loop
   vertex -0.076454244554042816 0.13351556658744812 -0.10571929812431335
   vertex -0.076104074716567993 0.13390745222568512 -0.10587750375270844
   vertex -0.07613787055015564 0.13345390558242798 -0.10606919229030609
  endloop
 endfacet
 facet normal -0.670085495204777 0.32741706052143804 -0.66617077209651698
  outer loop
   vertex -0.075746797025203705 0.13206969201564789 -0.10715509951114655
   vertex -0.076163195073604584 0.13173031806945801 -0.10690305382013321
   vertex -0.076097138226032257 0.13236856460571289 -0.10665580630302429
  endloop
 endfacet
 facet normal -0.67383427684130015 0.32824020656560932 -0.66197109766781237
  outer loop
   vertex -0.076509818434715271 0.13196906447410583 -0.10643382370471954
   vertex -0.076613947749137878 0.13244597613811493 -0.10609135031700134
   vertex -0.076097138226032257 0.13236856460571289 -0.10665580630302429
  endloop
 endfacet
 facet normal -0.66880938144921354 0.33591003077467935 -0.66321826159302522
  outer loop
   vertex -0.076097138226032257 0.13236856460571289 -0.10665580630302429
   vertex -0.076177947223186493 0.13289082050323486 -0.10630980134010315
   vertex -0.075825050473213196 0.13285554945468903 -0.10668353736400604
  endloop
 endfacet
 facet normal -0.67194304069930333 0.33397250999069433 -0.66102565201835384
  outer loop
   vertex -0.076097138226032257 0.13236856460571289 -0.10665580630302429
   vertex -0.076613947749137878 0.13244597613811493 -0.10609135031700134
   vertex -0.076177947223186493 0.13289082050323486 -0.10630980134010315
  endloop
 endfacet
endsolid
